<!DOCTYPE svg PUBLIC "-//W3C//DTD SVG 20010904//EN" "http://www.w3.org/TR/2001/REC-SVG-20010904/DTD/svg10.dtd">
<svg version="1.0" xmlns="http://www.w3.org/2000/svg" width="500px" height="500px" viewBox="0 0 5000 5000" preserveAspectRatio="xMidYMid meet">
<g id="layer101" fill="#3399e8" stroke="none">
<path d="M859 3013 c-38 -98 -299 -797 -299 -800 0 -1 78 -3 173 -3 l173 0 69 209 69 209 68 -209 69 -209 120 0 c111 0 120 1 117 18 -2 10 -68 197 -148 415 l-145 397 -128 0 -127 0 -11 -27z"/>
</g>
<g id="layer102" fill="#ffffff" stroke="none">
<path d="M1590 2620 l0 -420 130 0 130 0 0 315 0 315 165 0 165 0 0 105 0 105 -295 0 -295 0 0 -420z"/>
<path d="M2461 3021 c-60 -23 -68 -28 -129 -85 -125 -117 -159 -354 -78 -532 33 -72 106 -148 175 -181 49 -24 70 -28 166 -31 93 -3 119 -1 166 17 117 44 193 126 230 244 29 92 23 262 -10 350 -30 76 -114 167 -189 204 -50 25 -70 28 -167 31 -90 2 -120 -1 -164 -17z m212 -202 c35 -27 50 -84 51 -199 1 -117 -8 -161 -40 -200 -20 -24 -34 -30 -64 -30 -80 0 -120 75 -120 227 0 104 15 165 47 198 33 32 89 34 126 4z"/>
<path d="M3296 3016 c-72 -31 -148 -102 -180 -171 -61 -128 -59 -341 4 -465 31 -61 96 -128 155 -158 46 -25 59 -27 175 -27 117 0 129 2 182 28 62 31 106 77 138 145 23 49 46 149 37 159 -4 3 -61 9 -127 12 l-120 6 0 -27 c0 -106 -103 -169 -165 -102 -36 38 -49 95 -49 209 0 156 32 215 116 215 49 0 85 -36 94 -92 l7 -38 71 0 c39 0 95 3 124 7 l53 6 -6 41 c-17 104 -82 193 -178 243 -46 24 -66 27 -162 30 -99 3 -116 1 -169 -21z"/>
<path d="M3900 2620 l0 -420 125 0 124 0 3 156 3 156 105 -156 104 -156 124 0 124 0 -78 113 c-43 61 -90 129 -105 150 l-27 38 129 265 c71 146 129 268 129 270 0 3 -66 3 -146 2 l-146 -3 -67 -147 c-36 -81 -69 -148 -73 -148 -3 0 -22 23 -42 50 -36 49 -36 51 -36 150 l0 100 -125 0 -125 0 0 -420z"/>
</g>


</svg>